<svg width="30" height="30" xmlns="http://www.w3.org/2000/svg"><defs><filter id="a"><feColorMatrix in="SourceGraphic" values="0 0 0 0 1 0 0 0 0 1 0 0 0 0 1 0 0 0 1 0" color-interpolation-filters="sRGB"/></filter></defs><g filter="url(#a)"><path d="M-1809-146v30h-30v-30h30Z" fill="none"/><path d="M15.001 3c-3.259 0-3.668.014-4.948.072-1.278.059-2.15.261-2.913.558a5.876 5.876 0 0 0-2.125 1.384A5.89 5.89 0 0 0 3.63 7.139c-.298.763-.5 1.636-.558 2.913C3.015 11.332 3 11.74 3 15c0 3.259.014 3.667.072 4.947.06 1.277.261 2.15.558 2.912a5.88 5.88 0 0 0 1.384 2.126 5.876 5.876 0 0 0 2.125 1.385c.763.297 1.636.499 2.913.557 1.28.059 1.689.073 4.947.073 3.26 0 3.667-.014 4.947-.073 1.278-.058 2.151-.26 2.914-.557a5.87 5.87 0 0 0 2.125-1.385 5.888 5.888 0 0 0 1.385-2.125c.295-.764.497-1.636.557-2.913.058-1.28.073-1.688.073-4.947 0-3.259-.015-3.668-.073-4.948-.06-1.277-.262-2.15-.557-2.912a5.887 5.887 0 0 0-1.385-2.126A5.865 5.865 0 0 0 22.86 3.63c-.765-.297-1.638-.499-2.915-.558C18.665 3.014 18.257 3 14.997 3h.004Zm-1.076 2.162H15c3.204 0 3.584.012 4.849.07 1.17.053 1.805.248 2.228.413.56.217.96.477 1.379.897.42.42.68.82.898 1.38.164.423.36 1.058.413 2.228.058 1.265.07 1.645.07 4.847 0 3.203-.012 3.583-.07 4.848-.053 1.17-.249 1.805-.413 2.227-.218.56-.478.959-.898 1.379-.42.42-.819.68-1.379.897-.422.165-1.058.36-2.228.414-1.265.057-1.645.07-4.849.07s-3.584-.013-4.849-.07c-1.17-.054-1.805-.25-2.228-.414a3.717 3.717 0 0 1-1.38-.897 3.72 3.72 0 0 1-.898-1.38c-.165-.422-.36-1.057-.413-2.227-.058-1.265-.07-1.645-.07-4.85 0-3.204.012-3.582.07-4.847.053-1.17.248-1.805.413-2.228.217-.56.478-.96.898-1.38.42-.42.82-.68 1.38-.898.423-.165 1.058-.36 2.228-.414 1.107-.05 1.536-.065 3.773-.067v.002Zm7.482 1.993a1.44 1.44 0 1 0 0 2.88 1.44 1.44 0 0 0 0-2.88ZM15 8.838a6.163 6.163 0 1 0 .001 12.325 6.163 6.163 0 0 0-.001-12.325Zm0 2.162a4 4 0 1 1 0 8 4 4 0 0 1 0-8Z" fill-rule="evenodd"/></g></svg>