<svg width="30" height="30" xmlns="http://www.w3.org/2000/svg"><defs><filter id="a"><feColorMatrix in="SourceGraphic" values="0 0 0 0 1 0 0 0 0 1 0 0 0 0 1 0 0 0 1 0" color-interpolation-filters="sRGB"/></filter></defs><g filter="url(#a)"><path d="M-1809-146v30h-30v-30h30Z" fill="none"/><path d="M25.65 8.094a8.811 8.811 0 0 1-1.517.503 4.642 4.642 0 0 0 1.249-1.955c.07-.214-.167-.399-.363-.285a8.834 8.834 0 0 1-2.32.943.62.62 0 0 1-.55-.135A4.789 4.789 0 0 0 19.01 6c-.501 0-1.007.077-1.503.228-1.538.47-2.725 1.717-3.097 3.257a4.897 4.897 0 0 0-.112 1.718.165.165 0 0 1-.043.13.177.177 0 0 1-.148.058A12.498 12.498 0 0 1 5.56 6.899a.25.25 0 0 0-.406.031c-.42.71-.642 1.52-.642 2.346 0 1.264.516 2.456 1.413 3.325a4.295 4.295 0 0 1-1.081-.412.248.248 0 0 0-.369.21c-.023 1.88 1.095 3.551 2.77 4.304a4.271 4.271 0 0 1-.9-.074.246.246 0 0 0-.283.314c.544 1.67 2.006 2.901 3.755 3.18a8.856 8.856 0 0 1-4.902 1.465h-.548a.362.362 0 0 0-.355.269.367.367 0 0 0 .18.408A13.185 13.185 0 0 0 10.731 24c2.011 0 3.892-.392 5.59-1.166a12.327 12.327 0 0 0 4.091-3.015 13.173 13.173 0 0 0 2.505-4.126c.556-1.463.85-3.025.85-4.516v-.07c0-.24.11-.465.303-.618a9.278 9.278 0 0 0 1.886-2.037c.138-.203-.08-.457-.307-.358Z" fill-rule="evenodd"/></g></svg>